<svg xmlns="http://www.w3.org/2000/svg" viewBox="0 0 1400 1050" width="1400" height="1050">
<defs>
<radialGradient id="bg" cx="20%" cy="10%" r="115%"><stop offset="0%" stop-color="#1B2735"/><stop offset="45%" stop-color="#0F131A"/><stop offset="100%" stop-color="#07090C"/></radialGradient>
<radialGradient id="halo"><stop offset="0%" stop-color="#E8FF47" stop-opacity="0.42"/><stop offset="55%" stop-color="#E8FF47" stop-opacity="0.10"/><stop offset="100%" stop-color="#E8FF47" stop-opacity="0"/></radialGradient>
<linearGradient id="fade" x1="0" y1="0" x2="1" y2="0"><stop offset="0%" stop-color="#07090C" stop-opacity="0.92"/><stop offset="30%" stop-color="#07090C" stop-opacity="0.55"/><stop offset="58%" stop-color="#07090C" stop-opacity="0.10"/><stop offset="100%" stop-color="#07090C" stop-opacity="0"/></linearGradient>
</defs>
<rect width="1400" height="1050" fill="url(#bg)"/>
<line x1="588" y1="147" x2="588" y2="924" stroke="#FFFFFF" stroke-opacity="0.05"/>
<line x1="693" y1="147" x2="693" y2="924" stroke="#FFFFFF" stroke-opacity="0.05"/>
<line x1="798" y1="147" x2="798" y2="924" stroke="#FFFFFF" stroke-opacity="0.05"/>
<line x1="903" y1="147" x2="903" y2="924" stroke="#FFFFFF" stroke-opacity="0.05"/>
<line x1="1008" y1="147" x2="1008" y2="924" stroke="#FFFFFF" stroke-opacity="0.05"/>
<line x1="1113" y1="147" x2="1113" y2="924" stroke="#FFFFFF" stroke-opacity="0.05"/>
<line x1="1218" y1="147" x2="1218" y2="924" stroke="#FFFFFF" stroke-opacity="0.05"/>
<line x1="504" y1="209" x2="1302" y2="209" stroke="#FFFFFF" stroke-opacity="0.05"/>
<line x1="504" y1="365" x2="1302" y2="365" stroke="#FFFFFF" stroke-opacity="0.05"/>
<line x1="504" y1="520" x2="1302" y2="520" stroke="#FFFFFF" stroke-opacity="0.05"/>
<line x1="504" y1="676" x2="1302" y2="676" stroke="#FFFFFF" stroke-opacity="0.05"/>
<line x1="504" y1="831" x2="1302" y2="831" stroke="#FFFFFF" stroke-opacity="0.05"/>
<rect width="1400" height="1050" fill="url(#fade)"/>
<circle cx="1040" cy="470" r="230" fill="url(#halo)"/>
<line x1="760" y1="790" x2="1235" y2="790" stroke="#FFFFFF" stroke-opacity="0.26" stroke-width="3"/>
<line x1="1000" y1="790" x2="1000" y2="732" stroke="#FFFFFF" stroke-opacity="0.26" stroke-width="3"/>
<path d="M800 655 Q 1010 550 1350 700" fill="none" stroke="#9AA6B6" stroke-opacity="0.45" stroke-width="2.6" stroke-dasharray="10 10"/>
<circle cx="1350" cy="700" r="18" fill="#5A6879" fill-opacity="0.55"/><circle cx="1350" cy="700" r="7" fill="#9AA6B6" fill-opacity="0.75"/>
<path d="M800 655 Q 1005 295 1170 774" fill="none" stroke="#E8FF47" stroke-opacity="0.6" stroke-width="3"/>
<circle cx="1170" cy="774" r="34" fill="none" stroke="#E8FF47" stroke-opacity="0.28" stroke-width="1.6"/><circle cx="1170" cy="774" r="20" fill="#E8FF47"/>
<circle cx="800" cy="655" r="24" fill="#5A6879" fill-opacity="0.55"/><circle cx="800" cy="655" r="10" fill="#9AA6B6" fill-opacity="0.75"/>
</svg>
